<svg width="1105" height="526" viewBox="0 0 1105 526" fill="none" xmlns="http://www.w3.org/2000/svg">
<g filter="url(#filter0_d_17_20)">
<rect x="4" y="3" width="1097" height="518" rx="20" fill="white"/>
</g>
<rect x="117.25" y="451.25" width="943.5" height="0.5" rx="0.25" stroke="#D7D7D7" stroke-width="0.5" stroke-dasharray="2 6"/>
<rect x="117.25" y="412.25" width="943.5" height="0.5" rx="0.25" stroke="#D7D7D7" stroke-width="0.5" stroke-dasharray="2 6"/>
<rect x="117.25" y="373.25" width="943.5" height="0.5" rx="0.25" stroke="#D7D7D7" stroke-width="0.5" stroke-dasharray="2 6"/>
<rect x="117.25" y="334.25" width="943.5" height="0.5" rx="0.25" stroke="#D7D7D7" stroke-width="0.5" stroke-dasharray="2 6"/>
<rect x="117.25" y="295.25" width="943.5" height="0.5" rx="0.25" stroke="#D7D7D7" stroke-width="0.5" stroke-dasharray="2 6"/>
<rect x="117.25" y="256.25" width="943.5" height="0.5" rx="0.25" stroke="#D7D7D7" stroke-width="0.5" stroke-dasharray="2 6"/>
<rect x="117.25" y="217.25" width="943.5" height="0.5" rx="0.25" stroke="#D7D7D7" stroke-width="0.5" stroke-dasharray="2 6"/>
<rect x="117.25" y="178.25" width="943.5" height="0.5" rx="0.25" stroke="#D7D7D7" stroke-width="0.5" stroke-dasharray="2 6"/>
<rect x="117.25" y="139.25" width="943.5" height="0.5" rx="0.25" stroke="#D7D7D7" stroke-width="0.5" stroke-dasharray="2 6"/>
<rect width="9" height="26.6378" rx="4.5" transform="matrix(-1 0 0 1 1036 346.362)" fill="#EA7A9A"/>
<rect width="9" height="156.693" rx="4.5" transform="matrix(-1 0 0 1 1001 216.307)" fill="#EA7A9A"/>
<rect width="9" height="114.386" rx="4.5" transform="matrix(-1 0 0 1 966 258.614)" fill="#EA7A9A"/>
<rect width="9" height="114.386" rx="4.5" transform="matrix(-1 0 0 1 931 258.614)" fill="#EA7A9A"/>
<rect width="9" height="40.7402" rx="4.5" transform="matrix(-1 0 0 1 896 332.26)" fill="#EA7A9A"/>
<rect width="9" height="62.6772" rx="4.5" transform="matrix(-1 0 0 1 861 310.323)" fill="#EA7A9A"/>
<rect width="9" height="156.693" rx="4.5" transform="matrix(-1 0 0 1 826 216.307)" fill="#EA7A9A"/>
<rect width="9" height="114.386" rx="4.5" transform="matrix(-1 0 0 1 791 258.614)" fill="#EA7A9A"/>
<rect width="9" height="62.6772" rx="4.5" transform="matrix(-1 0 0 1 756 310.323)" fill="#EA7A9A"/>
<rect width="9" height="92.4488" rx="4.5" transform="matrix(-1 0 0 1 721 280.551)" fill="#EA7A9A"/>
<rect width="9" height="183.331" rx="4.5" transform="matrix(-1 0 0 1 686 189.669)" fill="#EA7A9A"/>
<rect width="9" height="122.22" rx="4.5" transform="matrix(-1 0 0 1 651 250.779)" fill="#EA7A9A"/>
<rect width="9" height="43.874" rx="4.5" transform="matrix(-1 0 0 1 616 329.126)" fill="#EA7A9A"/>
<rect width="9" height="28.2047" rx="4.5" transform="matrix(-1 0 0 1 581 344.795)" fill="#EA7A9A"/>
<rect width="9" height="156.693" rx="4.5" transform="matrix(-1 0 0 1 546 216.307)" fill="#EA7A9A"/>
<rect width="9" height="92.4488" rx="4.5" transform="matrix(-1 0 0 1 511 280.551)" fill="#EA7A9A"/>
<rect width="9" height="122.22" rx="4.5" transform="matrix(-1 0 0 1 476 250.779)" fill="#EA7A9A"/>
<rect width="9" height="183.331" rx="4.5" transform="matrix(-1 0 0 1 441 189.669)" fill="#EA7A9A"/>
<rect width="9" height="92.4488" rx="4.5" transform="matrix(-1 0 0 1 406 280.551)" fill="#EA7A9A"/>
<rect width="9" height="147.291" rx="4.5" transform="matrix(-1 0 0 1 371 225.708)" fill="#EA7A9A"/>
<rect width="9" height="28.2047" rx="4.5" transform="matrix(-1 0 0 1 336 344.795)" fill="#EA7A9A"/>
<rect width="9" height="83.0472" rx="4.5" transform="matrix(-1 0 0 1 301 289.953)" fill="#EA7A9A"/>
<rect width="9" height="199" rx="4.5" transform="matrix(-1 0 0 1 266 174)" fill="#EA7A9A"/>
<rect width="9" height="147.291" rx="4.5" transform="matrix(-1 0 0 1 231 225.708)" fill="#EA7A9A"/>
<rect width="9" height="122.22" rx="4.5" transform="matrix(-1 0 0 1 196 250.779)" fill="#EA7A9A"/>
<rect width="9" height="28.2047" rx="4.5" transform="matrix(-1 0 0 1 161 344.795)" fill="#EA7A9A"/>
<rect width="9" height="92.4488" rx="4.5" transform="matrix(-1 0 0 1 126 280.551)" fill="#EA7A9A"/>
<rect width="9" height="11.1102" rx="4.5" transform="matrix(1 0 0 -1 117 380.11)" fill="#FAC7B6"/>
<rect width="9" height="65.3543" rx="4.5" transform="matrix(1 0 0 -1 152 434.354)" fill="#FAC7B6"/>
<rect width="9" height="47.7087" rx="4.5" transform="matrix(1 0 0 -1 187 416.708)" fill="#FAC7B6"/>
<rect width="9" height="47.7087" rx="4.5" transform="matrix(1 0 0 -1 222 416.708)" fill="#FAC7B6"/>
<rect width="9" height="16.9921" rx="4.5" transform="matrix(1 0 0 -1 257 385.992)" fill="#FAC7B6"/>
<rect width="9" height="26.1417" rx="4.5" transform="matrix(1 0 0 -1 292 395.142)" fill="#FAC7B6"/>
<rect width="9" height="65.3543" rx="4.5" transform="matrix(1 0 0 -1 327 434.354)" fill="#FAC7B6"/>
<rect width="9" height="47.7087" rx="4.5" transform="matrix(1 0 0 -1 362 416.708)" fill="#FAC7B6"/>
<rect width="9" height="26.1417" rx="4.5" transform="matrix(1 0 0 -1 397 395.142)" fill="#FAC7B6"/>
<rect width="9" height="38.5591" rx="4.5" transform="matrix(1 0 0 -1 432 407.559)" fill="#FAC7B6"/>
<rect width="9" height="76.4646" rx="4.5" transform="matrix(1 0 0 -1 467 445.464)" fill="#FAC7B6"/>
<rect width="9" height="50.9764" rx="4.5" transform="matrix(1 0 0 -1 502 419.977)" fill="#FAC7B6"/>
<rect width="9" height="18.2992" rx="4.5" transform="matrix(1 0 0 -1 537 387.299)" fill="#FAC7B6"/>
<rect width="9" height="11.7638" rx="4.5" transform="matrix(1 0 0 -1 572 380.764)" fill="#FAC7B6"/>
<rect width="9" height="65.3543" rx="4.5" transform="matrix(1 0 0 -1 607 434.354)" fill="#FAC7B6"/>
<rect width="9" height="38.5591" rx="4.5" transform="matrix(1 0 0 -1 642 407.559)" fill="#FAC7B6"/>
<rect width="9" height="50.9764" rx="4.5" transform="matrix(1 0 0 -1 677 419.977)" fill="#FAC7B6"/>
<rect width="9" height="76.4646" rx="4.5" transform="matrix(1 0 0 -1 712 445.464)" fill="#FAC7B6"/>
<rect width="9" height="38.5591" rx="4.5" transform="matrix(1 0 0 -1 747 407.559)" fill="#FAC7B6"/>
<rect width="9" height="61.4331" rx="4.5" transform="matrix(1 0 0 -1 782 430.433)" fill="#FAC7B6"/>
<rect width="9" height="11.7638" rx="4.5" transform="matrix(1 0 0 -1 817 380.764)" fill="#FAC7B6"/>
<rect width="9" height="34.6378" rx="4.5" transform="matrix(1 0 0 -1 852 403.638)" fill="#FAC7B6"/>
<rect width="9" height="83" rx="4.5" transform="matrix(1 0 0 -1 887 452)" fill="#FAC7B6"/>
<rect width="9" height="61.4331" rx="4.5" transform="matrix(1 0 0 -1 922 430.433)" fill="#FAC7B6"/>
<rect width="9" height="50.9764" rx="4.5" transform="matrix(1 0 0 -1 957 419.977)" fill="#FAC7B6"/>
<rect width="9" height="11.7638" rx="4.5" transform="matrix(1 0 0 -1 992 380.764)" fill="#FAC7B6"/>
<rect width="9" height="38.5591" rx="4.5" transform="matrix(1 0 0 -1 1027 407.559)" fill="#FAC7B6"/>
<path d="M123.74 483H125V480.746H126.4V479.64H125V472.976H123.474L118.56 479.78V480.746H123.74V483ZM120.03 479.64L123.796 474.306V479.64H120.03Z" fill="#3E4954"/>
<path d="M153.232 472.864V478.576H154.436C154.772 477.778 155.514 477.246 156.536 477.246C158.006 477.246 158.748 478.086 158.748 479.528C158.748 480.914 158.062 481.95 156.522 481.95C155.332 481.95 154.506 481.32 154.268 480.256H153.022C153.274 481.894 154.492 483.028 156.508 483.028C158.874 483.028 159.966 481.46 159.966 479.5C159.966 477.932 159.182 476.154 156.718 476.154C155.724 476.154 154.828 476.602 154.408 477.176V473.984H159.322V472.864H153.232Z" fill="#3E4954"/>
<path d="M193.686 475.286C193.518 473.872 192.538 472.668 190.606 472.668C188.044 472.668 187.022 474.628 187.022 477.806C187.022 480.872 187.736 483.028 190.732 483.028C192.944 483.028 194.036 481.516 194.036 479.668C194.036 477.54 192.762 476.294 190.872 476.294C189.668 476.294 188.562 476.854 188.128 477.848C188.114 474.838 188.982 473.732 190.592 473.732C191.74 473.732 192.314 474.306 192.51 475.286H193.686ZM190.606 477.372C192.062 477.372 192.804 478.282 192.804 479.71C192.804 481.082 191.978 481.964 190.662 481.964C189.066 481.964 188.282 480.914 188.282 479.57C188.282 478.058 189.444 477.372 190.606 477.372Z" fill="#3E4954"/>
<path d="M220.462 472.906V473.998H225.866L221.918 483H223.206L227.098 473.872V472.906H220.462Z" fill="#3E4954"/>
<path d="M255.716 477.736C254.582 478.072 253.84 478.996 253.84 480.27C253.84 482.104 255.282 483.28 257.41 483.28C259.552 483.28 261.008 482.104 261.008 480.27C261.008 479.01 260.266 478.086 259.118 477.736C260.112 477.344 260.742 476.504 260.742 475.412C260.742 473.942 259.608 472.724 257.41 472.724C255.212 472.724 254.092 473.928 254.092 475.412C254.092 476.546 254.68 477.33 255.716 477.736ZM257.41 477.316C256.178 477.316 255.324 476.63 255.324 475.58C255.324 474.39 256.164 473.788 257.41 473.788C258.684 473.788 259.51 474.404 259.51 475.566C259.51 476.616 258.656 477.316 257.41 477.316ZM257.41 478.296C258.74 478.296 259.748 478.926 259.748 480.228C259.748 481.404 258.852 482.216 257.41 482.216C255.968 482.216 255.058 481.418 255.058 480.228C255.058 478.884 256.108 478.296 257.41 478.296Z" fill="#3E4954"/>
<path d="M288.33 480.284C288.47 481.768 289.45 483.014 291.466 483.014C294.126 483.014 294.896 481.124 294.896 477.75C294.896 474.614 294.098 472.682 291.354 472.682C289.17 472.682 288.022 474.082 288.022 476.014C288.022 478.156 289.408 479.318 291.27 479.318C292.362 479.318 293.37 478.828 293.776 477.974C293.818 480.942 293.02 481.95 291.536 481.95C290.36 481.95 289.688 481.334 289.506 480.284H288.33ZM291.48 478.24C289.968 478.24 289.24 477.288 289.24 475.986C289.24 474.642 290.066 473.746 291.382 473.746C292.838 473.746 293.622 474.712 293.622 476.084C293.622 477.442 292.698 478.24 291.48 478.24Z" fill="#3E4954"/>
<path d="M322.876 483H324.164V472.878H321.532V474.04H322.876V483ZM326.352 477.834C326.352 480.774 327.08 483 329.88 483C332.666 483 333.394 480.774 333.394 477.834C333.394 474.936 332.666 472.724 329.88 472.724C327.08 472.724 326.352 474.936 326.352 477.834ZM332.134 477.834C332.134 480.018 331.868 481.838 329.88 481.838C327.878 481.838 327.612 480.018 327.612 477.834C327.612 475.734 327.878 473.886 329.88 473.886C331.868 473.886 332.134 475.734 332.134 477.834Z" fill="#3E4954"/>
<path d="M361.876 483H363.164V472.878H360.532V474.04H361.876V483ZM366.36 483H367.648V472.878H365.016V474.04H366.36V483Z" fill="#3E4954"/>
<path d="M395.876 483H397.164V472.878H394.532V474.04H395.876V483ZM399.198 482.888H405.932V481.824H401.116C402.922 480.354 405.638 478.212 405.638 475.692C405.638 473.816 404.406 472.696 402.502 472.696C400.682 472.696 399.324 473.816 399.24 475.972H400.472C400.528 474.698 401.2 473.788 402.516 473.788C403.888 473.788 404.378 474.628 404.378 475.748C404.378 477.82 401.858 479.836 399.198 481.978V482.888Z" fill="#3E4954"/>
<path d="M433.876 483H435.164V472.878H432.532V474.04H433.876V483ZM437.324 475.426H438.57C438.696 474.446 439.41 473.774 440.6 473.774C441.818 473.774 442.462 474.446 442.462 475.412C442.462 476.588 441.552 477.106 439.858 477.12H439.522V478.184H439.844C441.664 478.184 442.658 478.73 442.658 480.158C442.658 481.194 442.014 481.992 440.656 481.992C439.312 481.992 438.528 481.166 438.402 480.088H437.17C437.324 482.048 438.752 483.07 440.67 483.07C442.784 483.07 443.876 481.838 443.876 480.27C443.876 478.814 443.078 477.946 441.902 477.666V477.596C442.966 477.358 443.694 476.448 443.694 475.286C443.694 473.83 442.616 472.682 440.642 472.682C438.766 472.682 437.45 473.69 437.324 475.426Z" fill="#3E4954"/>
<path d="M467.876 483H469.164V472.878H466.532V474.04H467.876V483ZM476.224 483H477.484V480.746H478.884V479.64H477.484V472.976H475.958L471.044 479.78V480.746H476.224V483ZM472.514 479.64L476.28 474.306V479.64H472.514Z" fill="#3E4954"/>
<path d="M506.876 483H508.164V472.878H505.532V474.04H506.876V483ZM510.716 472.864V478.576H511.92C512.256 477.778 512.998 477.246 514.02 477.246C515.49 477.246 516.232 478.086 516.232 479.528C516.232 480.914 515.546 481.95 514.006 481.95C512.816 481.95 511.99 481.32 511.752 480.256H510.506C510.758 481.894 511.976 483.028 513.992 483.028C516.358 483.028 517.45 481.46 517.45 479.5C517.45 477.932 516.666 476.154 514.202 476.154C513.208 476.154 512.312 476.602 511.892 477.176V473.984H516.806V472.864H510.716Z" fill="#3E4954"/>
<path d="M538.876 483H540.164V472.878H537.532V474.04H538.876V483ZM549.17 475.286C549.002 473.872 548.022 472.668 546.09 472.668C543.528 472.668 542.506 474.628 542.506 477.806C542.506 480.872 543.22 483.028 546.216 483.028C548.428 483.028 549.52 481.516 549.52 479.668C549.52 477.54 548.246 476.294 546.356 476.294C545.152 476.294 544.046 476.854 543.612 477.848C543.598 474.838 544.466 473.732 546.076 473.732C547.224 473.732 547.798 474.306 547.994 475.286H549.17ZM546.09 477.372C547.546 477.372 548.288 478.282 548.288 479.71C548.288 481.082 547.462 481.964 546.146 481.964C544.55 481.964 543.766 480.914 543.766 479.57C543.766 478.058 544.928 477.372 546.09 477.372Z" fill="#3E4954"/>
<path d="M573.876 483H575.164V472.878H572.532V474.04H573.876V483ZM576.946 472.906V473.998H582.35L578.402 483H579.69L583.582 473.872V472.906H576.946Z" fill="#3E4954"/>
<path d="M608.876 483H610.164V472.878H607.532V474.04H608.876V483ZM614.2 477.736C613.066 478.072 612.324 478.996 612.324 480.27C612.324 482.104 613.766 483.28 615.894 483.28C618.036 483.28 619.492 482.104 619.492 480.27C619.492 479.01 618.75 478.086 617.602 477.736C618.596 477.344 619.226 476.504 619.226 475.412C619.226 473.942 618.092 472.724 615.894 472.724C613.696 472.724 612.576 473.928 612.576 475.412C612.576 476.546 613.164 477.33 614.2 477.736ZM615.894 477.316C614.662 477.316 613.808 476.63 613.808 475.58C613.808 474.39 614.648 473.788 615.894 473.788C617.168 473.788 617.994 474.404 617.994 475.566C617.994 476.616 617.14 477.316 615.894 477.316ZM615.894 478.296C617.224 478.296 618.232 478.926 618.232 480.228C618.232 481.404 617.336 482.216 615.894 482.216C614.452 482.216 613.542 481.418 613.542 480.228C613.542 478.884 614.592 478.296 615.894 478.296Z" fill="#3E4954"/>
<path d="M642.876 483H644.164V472.878H641.532V474.04H642.876V483ZM646.814 480.284C646.954 481.768 647.934 483.014 649.95 483.014C652.61 483.014 653.38 481.124 653.38 477.75C653.38 474.614 652.582 472.682 649.838 472.682C647.654 472.682 646.506 474.082 646.506 476.014C646.506 478.156 647.892 479.318 649.754 479.318C650.846 479.318 651.854 478.828 652.26 477.974C652.302 480.942 651.504 481.95 650.02 481.95C648.844 481.95 648.172 481.334 647.99 480.284H646.814ZM649.964 478.24C648.452 478.24 647.724 477.288 647.724 475.986C647.724 474.642 648.55 473.746 649.866 473.746C651.322 473.746 652.106 474.712 652.106 476.084C652.106 477.442 651.182 478.24 649.964 478.24Z" fill="#3E4954"/>
<path d="M674.714 482.888H681.448V481.824H676.632C678.438 480.354 681.154 478.212 681.154 475.692C681.154 473.816 679.922 472.696 678.018 472.696C676.198 472.696 674.84 473.816 674.756 475.972H675.988C676.044 474.698 676.716 473.788 678.032 473.788C679.404 473.788 679.894 474.628 679.894 475.748C679.894 477.82 677.374 479.836 674.714 481.978V482.888ZM682.921 477.834C682.921 480.774 683.649 483 686.449 483C689.235 483 689.963 480.774 689.963 477.834C689.963 474.936 689.235 472.724 686.449 472.724C683.649 472.724 682.921 474.936 682.921 477.834ZM688.703 477.834C688.703 480.018 688.437 481.838 686.449 481.838C684.447 481.838 684.181 480.018 684.181 477.834C684.181 475.734 684.447 473.886 686.449 473.886C688.437 473.886 688.703 475.734 688.703 477.834Z" fill="#3E4954"/>
<path d="M711.714 482.888H718.448V481.824H713.632C715.438 480.354 718.154 478.212 718.154 475.692C718.154 473.816 716.922 472.696 715.018 472.696C713.198 472.696 711.84 473.816 711.756 475.972H712.988C713.044 474.698 713.716 473.788 715.032 473.788C716.404 473.788 716.894 474.628 716.894 475.748C716.894 477.82 714.374 479.836 711.714 481.978V482.888ZM720.929 483H722.217V472.878H719.585V474.04H720.929V483Z" fill="#3E4954"/>
<path d="M744.714 482.888H751.448V481.824H746.632C748.438 480.354 751.154 478.212 751.154 475.692C751.154 473.816 749.922 472.696 748.018 472.696C746.198 472.696 744.84 473.816 744.756 475.972H745.988C746.044 474.698 746.716 473.788 748.032 473.788C749.404 473.788 749.894 474.628 749.894 475.748C749.894 477.82 747.374 479.836 744.714 481.978V482.888ZM752.767 482.888H759.501V481.824H754.685C756.491 480.354 759.207 478.212 759.207 475.692C759.207 473.816 757.975 472.696 756.071 472.696C754.251 472.696 752.893 473.816 752.809 475.972H754.041C754.097 474.698 754.769 473.788 756.085 473.788C757.457 473.788 757.947 474.628 757.947 475.748C757.947 477.82 755.427 479.836 752.767 481.978V482.888Z" fill="#3E4954"/>
<path d="M780.714 482.888H787.448V481.824H782.632C784.438 480.354 787.154 478.212 787.154 475.692C787.154 473.816 785.922 472.696 784.018 472.696C782.198 472.696 780.84 473.816 780.756 475.972H781.988C782.044 474.698 782.716 473.788 784.032 473.788C785.404 473.788 785.894 474.628 785.894 475.748C785.894 477.82 783.374 479.836 780.714 481.978V482.888ZM788.893 475.426H790.139C790.265 474.446 790.979 473.774 792.169 473.774C793.387 473.774 794.031 474.446 794.031 475.412C794.031 476.588 793.121 477.106 791.427 477.12H791.091V478.184H791.413C793.233 478.184 794.227 478.73 794.227 480.158C794.227 481.194 793.583 481.992 792.225 481.992C790.881 481.992 790.097 481.166 789.971 480.088H788.739C788.893 482.048 790.321 483.07 792.239 483.07C794.353 483.07 795.445 481.838 795.445 480.27C795.445 478.814 794.647 477.946 793.471 477.666V477.596C794.535 477.358 795.263 476.448 795.263 475.286C795.263 473.83 794.185 472.682 792.211 472.682C790.335 472.682 789.019 473.69 788.893 475.426Z" fill="#3E4954"/>
<path d="M816.714 482.888H823.448V481.824H818.632C820.438 480.354 823.154 478.212 823.154 475.692C823.154 473.816 821.922 472.696 820.018 472.696C818.198 472.696 816.84 473.816 816.756 475.972H817.988C818.044 474.698 818.716 473.788 820.032 473.788C821.404 473.788 821.894 474.628 821.894 475.748C821.894 477.82 819.374 479.836 816.714 481.978V482.888ZM829.793 483H831.053V480.746H832.453V479.64H831.053V472.976H829.527L824.613 479.78V480.746H829.793V483ZM826.083 479.64L829.849 474.306V479.64H826.083Z" fill="#3E4954"/>
<path d="M850.714 482.888H857.448V481.824H852.632C854.438 480.354 857.154 478.212 857.154 475.692C857.154 473.816 855.922 472.696 854.018 472.696C852.198 472.696 850.84 473.816 850.756 475.972H851.988C852.044 474.698 852.716 473.788 854.032 473.788C855.404 473.788 855.894 474.628 855.894 475.748C855.894 477.82 853.374 479.836 850.714 481.978V482.888ZM859.285 472.864V478.576H860.489C860.825 477.778 861.567 477.246 862.589 477.246C864.059 477.246 864.801 478.086 864.801 479.528C864.801 480.914 864.115 481.95 862.575 481.95C861.385 481.95 860.559 481.32 860.321 480.256H859.075C859.327 481.894 860.545 483.028 862.561 483.028C864.927 483.028 866.019 481.46 866.019 479.5C866.019 477.932 865.235 476.154 862.771 476.154C861.777 476.154 860.881 476.602 860.461 477.176V473.984H865.375V472.864H859.285Z" fill="#3E4954"/>
<path d="M885.714 482.888H892.448V481.824H887.632C889.438 480.354 892.154 478.212 892.154 475.692C892.154 473.816 890.922 472.696 889.018 472.696C887.198 472.696 885.84 473.816 885.756 475.972H886.988C887.044 474.698 887.716 473.788 889.032 473.788C890.404 473.788 890.894 474.628 890.894 475.748C890.894 477.82 888.374 479.836 885.714 481.978V482.888ZM900.739 475.286C900.571 473.872 899.591 472.668 897.659 472.668C895.097 472.668 894.075 474.628 894.075 477.806C894.075 480.872 894.789 483.028 897.785 483.028C899.997 483.028 901.089 481.516 901.089 479.668C901.089 477.54 899.815 476.294 897.925 476.294C896.721 476.294 895.615 476.854 895.181 477.848C895.167 474.838 896.035 473.732 897.645 473.732C898.793 473.732 899.367 474.306 899.563 475.286H900.739ZM897.659 477.372C899.115 477.372 899.857 478.282 899.857 479.71C899.857 481.082 899.031 481.964 897.715 481.964C896.119 481.964 895.335 480.914 895.335 479.57C895.335 478.058 896.497 477.372 897.659 477.372Z" fill="#3E4954"/>
<path d="M920.714 482.888H927.448V481.824H922.632C924.438 480.354 927.154 478.212 927.154 475.692C927.154 473.816 925.922 472.696 924.018 472.696C922.198 472.696 920.84 473.816 920.756 475.972H921.988C922.044 474.698 922.716 473.788 924.032 473.788C925.404 473.788 925.894 474.628 925.894 475.748C925.894 477.82 923.374 479.836 920.714 481.978V482.888ZM928.515 472.906V473.998H933.919L929.971 483H931.259L935.151 473.872V472.906H928.515Z" fill="#3E4954"/>
<path d="M953.714 482.888H960.448V481.824H955.632C957.438 480.354 960.154 478.212 960.154 475.692C960.154 473.816 958.922 472.696 957.018 472.696C955.198 472.696 953.84 473.816 953.756 475.972H954.988C955.044 474.698 955.716 473.788 957.032 473.788C958.404 473.788 958.894 474.628 958.894 475.748C958.894 477.82 956.374 479.836 953.714 481.978V482.888ZM963.769 477.736C962.635 478.072 961.893 478.996 961.893 480.27C961.893 482.104 963.335 483.28 965.463 483.28C967.605 483.28 969.061 482.104 969.061 480.27C969.061 479.01 968.319 478.086 967.171 477.736C968.165 477.344 968.795 476.504 968.795 475.412C968.795 473.942 967.661 472.724 965.463 472.724C963.265 472.724 962.145 473.928 962.145 475.412C962.145 476.546 962.733 477.33 963.769 477.736ZM965.463 477.316C964.231 477.316 963.377 476.63 963.377 475.58C963.377 474.39 964.217 473.788 965.463 473.788C966.737 473.788 967.563 474.404 967.563 475.566C967.563 476.616 966.709 477.316 965.463 477.316ZM965.463 478.296C966.793 478.296 967.801 478.926 967.801 480.228C967.801 481.404 966.905 482.216 965.463 482.216C964.021 482.216 963.111 481.418 963.111 480.228C963.111 478.884 964.161 478.296 965.463 478.296Z" fill="#3E4954"/>
<path d="M989.714 482.888H996.448V481.824H991.632C993.438 480.354 996.154 478.212 996.154 475.692C996.154 473.816 994.922 472.696 993.018 472.696C991.198 472.696 989.84 473.816 989.756 475.972H990.988C991.044 474.698 991.716 473.788 993.032 473.788C994.404 473.788 994.894 474.628 994.894 475.748C994.894 477.82 992.374 479.836 989.714 481.978V482.888ZM998.383 480.284C998.523 481.768 999.503 483.014 1001.52 483.014C1004.18 483.014 1004.95 481.124 1004.95 477.75C1004.95 474.614 1004.15 472.682 1001.41 472.682C999.223 472.682 998.075 474.082 998.075 476.014C998.075 478.156 999.461 479.318 1001.32 479.318C1002.41 479.318 1003.42 478.828 1003.83 477.974C1003.87 480.942 1003.07 481.95 1001.59 481.95C1000.41 481.95 999.741 481.334 999.559 480.284H998.383ZM1001.53 478.24C1000.02 478.24 999.293 477.288 999.293 475.986C999.293 474.642 1000.12 473.746 1001.43 473.746C1002.89 473.746 1003.67 474.712 1003.67 476.084C1003.67 477.442 1002.75 478.24 1001.53 478.24Z" fill="#3E4954"/>
<path d="M1025.84 475.426H1027.09C1027.21 474.446 1027.93 473.774 1029.12 473.774C1030.33 473.774 1030.98 474.446 1030.98 475.412C1030.98 476.588 1030.07 477.106 1028.37 477.12H1028.04V478.184H1028.36C1030.18 478.184 1031.17 478.73 1031.17 480.158C1031.17 481.194 1030.53 481.992 1029.17 481.992C1027.83 481.992 1027.04 481.166 1026.92 480.088H1025.69C1025.84 482.048 1027.27 483.07 1029.19 483.07C1031.3 483.07 1032.39 481.838 1032.39 480.27C1032.39 478.814 1031.59 477.946 1030.42 477.666V477.596C1031.48 477.358 1032.21 476.448 1032.21 475.286C1032.21 473.83 1031.13 472.682 1029.16 472.682C1027.28 472.682 1025.97 473.69 1025.84 475.426ZM1034.11 477.834C1034.11 480.774 1034.84 483 1037.64 483C1040.43 483 1041.15 480.774 1041.15 477.834C1041.15 474.936 1040.43 472.724 1037.64 472.724C1034.84 472.724 1034.11 474.936 1034.11 477.834ZM1039.89 477.834C1039.89 480.018 1039.63 481.838 1037.64 481.838C1035.64 481.838 1035.37 480.018 1035.37 477.834C1035.37 475.734 1035.64 473.886 1037.64 473.886C1039.63 473.886 1039.89 475.734 1039.89 477.834Z" fill="#3E4954"/>
<path d="M33.876 420H35.164V409.878H32.532V411.04H33.876V420ZM37.3524 414.834C37.3524 417.774 38.0804 420 40.8804 420C43.6664 420 44.3944 417.774 44.3944 414.834C44.3944 411.936 43.6664 409.724 40.8804 409.724C38.0804 409.724 37.3524 411.936 37.3524 414.834ZM43.1344 414.834C43.1344 417.018 42.8684 418.838 40.8804 418.838C38.8784 418.838 38.6124 417.018 38.6124 414.834C38.6124 412.734 38.8784 410.886 40.8804 410.886C42.8684 410.886 43.1344 412.734 43.1344 414.834ZM46.1434 414.834C46.1434 417.774 46.8714 420 49.6714 420C52.4574 420 53.1854 417.774 53.1854 414.834C53.1854 411.936 52.4574 409.724 49.6714 409.724C46.8714 409.724 46.1434 411.936 46.1434 414.834ZM51.9254 414.834C51.9254 417.018 51.6594 418.838 49.6714 418.838C47.6694 418.838 47.4034 417.018 47.4034 414.834C47.4034 412.734 47.6694 410.886 49.6714 410.886C51.6594 410.886 51.9254 412.734 51.9254 414.834Z" fill="#3E4954"/>
<path d="M32.714 378.888H39.448V377.824H34.632C36.438 376.354 39.154 374.212 39.154 371.692C39.154 369.816 37.922 368.696 36.018 368.696C34.198 368.696 32.84 369.816 32.756 371.972H33.988C34.044 370.698 34.716 369.788 36.032 369.788C37.404 369.788 37.894 370.628 37.894 371.748C37.894 373.82 35.374 375.836 32.714 377.978V378.888ZM40.9207 373.834C40.9207 376.774 41.6487 379 44.4487 379C47.2347 379 47.9627 376.774 47.9627 373.834C47.9627 370.936 47.2347 368.724 44.4487 368.724C41.6487 368.724 40.9207 370.936 40.9207 373.834ZM46.7027 373.834C46.7027 376.018 46.4367 377.838 44.4487 377.838C42.4467 377.838 42.1807 376.018 42.1807 373.834C42.1807 371.734 42.4467 369.886 44.4487 369.886C46.4367 369.886 46.7027 371.734 46.7027 373.834ZM49.7118 373.834C49.7118 376.774 50.4398 379 53.2398 379C56.0258 379 56.7537 376.774 56.7537 373.834C56.7537 370.936 56.0258 368.724 53.2398 368.724C50.4398 368.724 49.7118 370.936 49.7118 373.834ZM55.4938 373.834C55.4938 376.018 55.2278 377.838 53.2398 377.838C51.2378 377.838 50.9718 376.018 50.9718 373.834C50.9718 371.734 51.2378 369.886 53.2398 369.886C55.2278 369.886 55.4938 371.734 55.4938 373.834Z" fill="#3E4954"/>
<path d="M32.84 330.426H34.086C34.212 329.446 34.926 328.774 36.116 328.774C37.334 328.774 37.978 329.446 37.978 330.412C37.978 331.588 37.068 332.106 35.374 332.12H35.038V333.184H35.36C37.18 333.184 38.174 333.73 38.174 335.158C38.174 336.194 37.53 336.992 36.172 336.992C34.828 336.992 34.044 336.166 33.918 335.088H32.686C32.84 337.048 34.268 338.07 36.186 338.07C38.3 338.07 39.392 336.838 39.392 335.27C39.392 333.814 38.594 332.946 37.418 332.666V332.596C38.482 332.358 39.21 331.448 39.21 330.286C39.21 328.83 38.132 327.682 36.158 327.682C34.282 327.682 32.966 328.69 32.84 330.426ZM41.1121 332.834C41.1121 335.774 41.8401 338 44.6401 338C47.4261 338 48.1541 335.774 48.1541 332.834C48.1541 329.936 47.4261 327.724 44.6401 327.724C41.8401 327.724 41.1121 329.936 41.1121 332.834ZM46.8941 332.834C46.8941 335.018 46.6281 336.838 44.6401 336.838C42.6381 336.838 42.3721 335.018 42.3721 332.834C42.3721 330.734 42.6381 328.886 44.6401 328.886C46.6281 328.886 46.8941 330.734 46.8941 332.834ZM49.9032 332.834C49.9032 335.774 50.6312 338 53.4312 338C56.2172 338 56.9452 335.774 56.9452 332.834C56.9452 329.936 56.2172 327.724 53.4312 327.724C50.6312 327.724 49.9032 329.936 49.9032 332.834ZM55.6852 332.834C55.6852 335.018 55.4192 336.838 53.4312 336.838C51.4292 336.838 51.1632 335.018 51.1632 332.834C51.1632 330.734 51.4292 328.886 53.4312 328.886C55.4192 328.886 55.6852 330.734 55.6852 332.834Z" fill="#3E4954"/>
<path d="M37.74 300H39V297.746H40.4V296.64H39V289.976H37.474L32.56 296.78V297.746H37.74V300ZM34.03 296.64L37.796 291.306V296.64H34.03ZM41.6727 294.834C41.6727 297.774 42.4007 300 45.2007 300C47.9867 300 48.7147 297.774 48.7147 294.834C48.7147 291.936 47.9867 289.724 45.2007 289.724C42.4007 289.724 41.6727 291.936 41.6727 294.834ZM47.4547 294.834C47.4547 297.018 47.1887 298.838 45.2007 298.838C43.1987 298.838 42.9327 297.018 42.9327 294.834C42.9327 292.734 43.1987 290.886 45.2007 290.886C47.1887 290.886 47.4547 292.734 47.4547 294.834ZM50.4637 294.834C50.4637 297.774 51.1917 300 53.9917 300C56.7777 300 57.5057 297.774 57.5057 294.834C57.5057 291.936 56.7777 289.724 53.9917 289.724C51.1917 289.724 50.4637 291.936 50.4637 294.834ZM56.2457 294.834C56.2457 297.018 55.9797 298.838 53.9917 298.838C51.9897 298.838 51.7237 297.018 51.7237 294.834C51.7237 292.734 51.9897 290.886 53.9917 290.886C55.9797 290.886 56.2457 292.734 56.2457 294.834Z" fill="#3E4954"/>
<path d="M33.232 251.864V257.576H34.436C34.772 256.778 35.514 256.246 36.536 256.246C38.006 256.246 38.748 257.086 38.748 258.528C38.748 259.914 38.062 260.95 36.522 260.95C35.332 260.95 34.506 260.32 34.268 259.256H33.022C33.274 260.894 34.492 262.028 36.508 262.028C38.874 262.028 39.966 260.46 39.966 258.5C39.966 256.932 39.182 255.154 36.718 255.154C35.724 255.154 34.828 255.602 34.408 256.176V252.984H39.322V251.864H33.232ZM41.659 256.834C41.659 259.774 42.387 262 45.187 262C47.973 262 48.701 259.774 48.701 256.834C48.701 253.936 47.973 251.724 45.187 251.724C42.387 251.724 41.659 253.936 41.659 256.834ZM47.441 256.834C47.441 259.018 47.175 260.838 45.187 260.838C43.185 260.838 42.919 259.018 42.919 256.834C42.919 254.734 43.185 252.886 45.187 252.886C47.175 252.886 47.441 254.734 47.441 256.834ZM50.45 256.834C50.45 259.774 51.178 262 53.978 262C56.764 262 57.492 259.774 57.492 256.834C57.492 253.936 56.764 251.724 53.978 251.724C51.178 251.724 50.45 253.936 50.45 256.834ZM56.232 256.834C56.232 259.018 55.966 260.838 53.978 260.838C51.976 260.838 51.71 259.018 51.71 256.834C51.71 254.734 51.976 252.886 53.978 252.886C55.966 252.886 56.232 254.734 56.232 256.834Z" fill="#3E4954"/>
<path d="M39.686 216.286C39.518 214.872 38.538 213.668 36.606 213.668C34.044 213.668 33.022 215.628 33.022 218.806C33.022 221.872 33.736 224.028 36.732 224.028C38.944 224.028 40.036 222.516 40.036 220.668C40.036 218.54 38.762 217.294 36.872 217.294C35.668 217.294 34.562 217.854 34.128 218.848C34.114 215.838 34.982 214.732 36.592 214.732C37.74 214.732 38.314 215.306 38.51 216.286H39.686ZM36.606 218.372C38.062 218.372 38.804 219.282 38.804 220.71C38.804 222.082 37.978 222.964 36.662 222.964C35.066 222.964 34.282 221.914 34.282 220.57C34.282 219.058 35.444 218.372 36.606 218.372ZM41.7547 218.834C41.7547 221.774 42.4827 224 45.2827 224C48.0687 224 48.7967 221.774 48.7967 218.834C48.7967 215.936 48.0687 213.724 45.2827 213.724C42.4827 213.724 41.7547 215.936 41.7547 218.834ZM47.5367 218.834C47.5367 221.018 47.2707 222.838 45.2827 222.838C43.2807 222.838 43.0147 221.018 43.0147 218.834C43.0147 216.734 43.2807 214.886 45.2827 214.886C47.2707 214.886 47.5367 216.734 47.5367 218.834ZM50.5457 218.834C50.5457 221.774 51.2737 224 54.0737 224C56.8597 224 57.5877 221.774 57.5877 218.834C57.5877 215.936 56.8597 213.724 54.0737 213.724C51.2737 213.724 50.5457 215.936 50.5457 218.834ZM56.3277 218.834C56.3277 221.018 56.0617 222.838 54.0737 222.838C52.0717 222.838 51.8057 221.018 51.8057 218.834C51.8057 216.734 52.0717 214.886 54.0737 214.886C56.0617 214.886 56.3277 216.734 56.3277 218.834Z" fill="#3E4954"/>
<path d="M32.462 172.906V173.998H37.866L33.918 183H35.206L39.098 173.872V172.906H32.462ZM40.5106 177.834C40.5106 180.774 41.2386 183 44.0386 183C46.8246 183 47.5526 180.774 47.5526 177.834C47.5526 174.936 46.8246 172.724 44.0386 172.724C41.2386 172.724 40.5106 174.936 40.5106 177.834ZM46.2926 177.834C46.2926 180.018 46.0266 181.838 44.0386 181.838C42.0366 181.838 41.7706 180.018 41.7706 177.834C41.7706 175.734 42.0366 173.886 44.0386 173.886C46.0266 173.886 46.2926 175.734 46.2926 177.834ZM49.3016 177.834C49.3016 180.774 50.0296 183 52.8296 183C55.6156 183 56.3436 180.774 56.3436 177.834C56.3436 174.936 55.6156 172.724 52.8296 172.724C50.0296 172.724 49.3016 174.936 49.3016 177.834ZM55.0836 177.834C55.0836 180.018 54.8176 181.838 52.8296 181.838C50.8276 181.838 50.5616 180.018 50.5616 177.834C50.5616 175.734 50.8276 173.886 52.8296 173.886C54.8176 173.886 55.0836 175.734 55.0836 177.834Z" fill="#3E4954"/>
<path d="M34.716 139.736C33.582 140.072 32.84 140.996 32.84 142.27C32.84 144.104 34.282 145.28 36.41 145.28C38.552 145.28 40.008 144.104 40.008 142.27C40.008 141.01 39.266 140.086 38.118 139.736C39.112 139.344 39.742 138.504 39.742 137.412C39.742 135.942 38.608 134.724 36.41 134.724C34.212 134.724 33.092 135.928 33.092 137.412C33.092 138.546 33.68 139.33 34.716 139.736ZM36.41 139.316C35.178 139.316 34.324 138.63 34.324 137.58C34.324 136.39 35.164 135.788 36.41 135.788C37.684 135.788 38.51 136.404 38.51 137.566C38.51 138.616 37.656 139.316 36.41 139.316ZM36.41 140.296C37.74 140.296 38.748 140.926 38.748 142.228C38.748 143.404 37.852 144.216 36.41 144.216C34.968 144.216 34.058 143.418 34.058 142.228C34.058 140.884 35.108 140.296 36.41 140.296ZM41 137.328L44.01 145H45.494L48.504 137.328H47.146L44.766 143.824L42.372 137.328H41ZM48.8477 137.328L51.8577 145H53.3417L56.3517 137.328H54.9937L52.6137 143.824L50.2197 137.328H48.8477ZM57.3953 139.834C57.3953 142.774 58.1233 145 60.9233 145C63.7093 145 64.4373 142.774 64.4373 139.834C64.4373 136.936 63.7093 134.724 60.9233 134.724C58.1233 134.724 57.3953 136.936 57.3953 139.834ZM63.1773 139.834C63.1773 142.018 62.9113 143.838 60.9233 143.838C58.9213 143.838 58.6553 142.018 58.6553 139.834C58.6553 137.734 58.9213 135.886 60.9233 135.886C62.9113 135.886 63.1773 137.734 63.1773 139.834ZM66.1864 139.834C66.1864 142.774 66.9144 145 69.7144 145C72.5004 145 73.2284 142.774 73.2284 139.834C73.2284 136.936 72.5004 134.724 69.7144 134.724C66.9144 134.724 66.1864 136.936 66.1864 139.834ZM71.9684 139.834C71.9684 142.018 71.7024 143.838 69.7144 143.838C67.7124 143.838 67.4464 142.018 67.4464 139.834C67.4464 137.734 67.7124 135.886 69.7144 135.886C71.7024 135.886 71.9684 137.734 71.9684 139.834Z" fill="#3E4954"/>
<rect x="797" y="77" width="269" height="1" rx="0.5" fill="#F8F8F8"/>
<rect x="882" y="75" width="94" height="3" rx="1.5" fill="#EA7A9A"/>
<path d="M999.546 52.572H1002.15V61H1003.75V52.572H1006.34V51.27H999.546V52.572ZM1015.3 57.136C1015.3 54.714 1013.57 53.16 1011.37 53.16C1009.17 53.16 1007.43 54.714 1007.43 57.136C1007.43 59.558 1009.1 61.126 1011.3 61.126C1013.51 61.126 1015.3 59.558 1015.3 57.136ZM1009.06 57.136C1009.06 55.386 1010.14 54.546 1011.34 54.546C1012.53 54.546 1013.66 55.386 1013.66 57.136C1013.66 58.886 1012.49 59.74 1011.3 59.74C1010.09 59.74 1009.06 58.886 1009.06 57.136ZM1016.35 57.108C1016.35 59.488 1017.96 61.126 1019.99 61.126C1021.25 61.126 1022.17 60.538 1022.66 59.838V61H1024.27V50.64H1022.66V54.364C1022.07 53.636 1021.01 53.16 1020 53.16C1017.96 53.16 1016.35 54.728 1016.35 57.108ZM1022.66 57.136C1022.66 58.802 1021.53 59.74 1020.32 59.74C1019.13 59.74 1017.99 58.774 1017.99 57.108C1017.99 55.442 1019.13 54.546 1020.32 54.546C1021.53 54.546 1022.66 55.484 1022.66 57.136ZM1025.84 57.108C1025.84 59.488 1027.45 61.126 1029.45 61.126C1030.74 61.126 1031.66 60.51 1032.15 59.852V61H1033.76V53.286H1032.15V54.406C1031.67 53.776 1030.78 53.16 1029.48 53.16C1027.45 53.16 1025.84 54.728 1025.84 57.108ZM1032.15 57.136C1032.15 58.802 1031.02 59.74 1029.81 59.74C1028.62 59.74 1027.47 58.774 1027.47 57.108C1027.47 55.442 1028.62 54.546 1029.81 54.546C1031.02 54.546 1032.15 55.484 1032.15 57.136ZM1038.89 59.166L1036.72 53.286H1034.95L1037.98 60.874L1036.42 64.626H1038.07L1042.8 53.286H1041.15L1038.89 59.166Z" fill="#969BA0"/>
<path d="M809.05 61H810.646V54.336L813.628 61H814.734L817.702 54.336V61H819.298V51.27H817.59L814.188 58.9L810.772 51.27H809.05V61ZM828.746 57.136C828.746 54.714 827.01 53.16 824.812 53.16C822.614 53.16 820.878 54.714 820.878 57.136C820.878 59.558 822.544 61.126 824.742 61.126C826.954 61.126 828.746 59.558 828.746 57.136ZM822.502 57.136C822.502 55.386 823.58 54.546 824.784 54.546C825.974 54.546 827.108 55.386 827.108 57.136C827.108 58.886 825.932 59.74 824.742 59.74C823.538 59.74 822.502 58.886 822.502 57.136ZM835.797 61H837.379V56.45C837.379 54.294 836.021 53.16 834.215 53.16C833.291 53.16 832.437 53.538 831.919 54.168V53.286H830.323V61H831.919V56.688C831.919 55.274 832.689 54.546 833.865 54.546C835.027 54.546 835.797 55.274 835.797 56.688V61ZM839.667 58.858C839.667 60.426 840.521 61 841.893 61H843.153V59.67H842.173C841.501 59.67 841.277 59.432 841.277 58.858V54.588H843.153V53.286H841.277V51.368H839.667V53.286H838.757V54.588H839.667V58.858ZM844.624 61H846.22V56.688C846.22 55.274 846.99 54.546 848.166 54.546C849.328 54.546 850.098 55.274 850.098 56.688V61H851.68V56.45C851.68 54.294 850.336 53.16 848.614 53.16C847.62 53.16 846.752 53.538 846.22 54.182V50.64H844.624V61ZM853.716 61H855.312V50.64H853.716V61ZM860.445 59.166L858.275 53.286H856.497L859.535 60.874L857.967 64.626H859.619L864.351 53.286H862.699L860.445 59.166Z" fill="#969BA0"/>
<path d="M906.024 61.014L907.816 61L909.986 53.636L912.03 61H913.836L916.72 51.27H915.012L912.982 59.152L910.952 51.27H909.16L906.976 59.194L904.96 51.27H903.266L906.024 61.014ZM921.284 54.504C922.474 54.504 923.412 55.26 923.44 56.45H919.17C919.338 55.232 920.206 54.504 921.284 54.504ZM924.896 58.704H923.174C922.88 59.306 922.334 59.782 921.354 59.782C920.178 59.782 919.268 59.012 919.156 57.738H925.05C925.092 57.472 925.106 57.22 925.106 56.954C925.106 54.686 923.552 53.16 921.354 53.16C919.072 53.16 917.504 54.714 917.504 57.136C917.504 59.558 919.142 61.126 921.354 61.126C923.244 61.126 924.462 60.048 924.896 58.704ZM929.925 54.504C931.115 54.504 932.053 55.26 932.081 56.45H927.811C927.979 55.232 928.847 54.504 929.925 54.504ZM933.537 58.704H931.815C931.521 59.306 930.975 59.782 929.995 59.782C928.819 59.782 927.909 59.012 927.797 57.738H933.691C933.733 57.472 933.747 57.22 933.747 56.954C933.747 54.686 932.193 53.16 929.995 53.16C927.713 53.16 926.145 54.714 926.145 57.136C926.145 59.558 927.783 61.126 929.995 61.126C931.885 61.126 933.103 60.048 933.537 58.704ZM935.318 61H936.914V57.682L939.77 61H941.926L938.37 57.15L941.926 53.286H939.714L936.914 56.66V50.64H935.318V61ZM943.07 61H944.666V50.64H943.07V61ZM949.799 59.166L947.629 53.286H945.851L948.889 60.874L947.321 64.626H948.973L953.705 53.286H952.053L949.799 59.166Z" fill="#EA7A9A"/>
<path d="M34.74 48.02C34.74 52.2 37.92 55.12 41.84 55.12C44.74 55.12 47.24 53.68 48.3 50.96H45.56C44.82 52.44 43.5 53.14 41.84 53.14C39.08 53.14 37.08 51.16 37.08 48.02C37.08 44.88 39.08 42.92 41.84 42.92C43.5 42.92 44.82 43.62 45.56 45.1H48.3C47.24 42.38 44.74 40.92 41.84 40.92C37.92 40.92 34.74 43.86 34.74 48.02ZM60.9488 43.98H58.6688V50.12C58.6688 52.14 57.5688 53.18 55.8888 53.18C54.2288 53.18 53.1288 52.14 53.1288 50.12V43.98H50.8688V50.46C50.8688 53.54 52.8288 55.16 55.4088 55.16C56.7088 55.16 57.9488 54.62 58.6688 53.68V55H60.9488V43.98ZM72.177 51.92C72.057 47.94 65.837 49.18 65.837 46.96C65.837 46.22 66.477 45.72 67.697 45.72C68.937 45.72 69.677 46.38 69.757 47.34H72.037C71.917 45.14 70.277 43.8 67.777 43.8C65.177 43.8 63.537 45.22 63.537 46.98C63.537 51.02 69.937 49.78 69.937 51.94C69.937 52.7 69.237 53.26 67.917 53.26C66.657 53.26 65.797 52.52 65.717 51.62H63.357C63.457 53.62 65.317 55.18 67.957 55.18C70.557 55.18 72.177 53.78 72.177 51.92ZM75.0006 51.94C75.0006 54.18 76.2206 55 78.1806 55H79.9806V53.1H78.5806C77.6206 53.1 77.3006 52.76 77.3006 51.94V45.84H79.9806V43.98H77.3006V41.24H75.0006V43.98H73.7006V45.84H75.0006V51.94ZM92.582 49.48C92.582 46.02 90.102 43.8 86.962 43.8C83.822 43.8 81.342 46.02 81.342 49.48C81.342 52.94 83.722 55.18 86.862 55.18C90.022 55.18 92.582 52.94 92.582 49.48ZM83.662 49.48C83.662 46.98 85.202 45.78 86.922 45.78C88.622 45.78 90.242 46.98 90.242 49.48C90.242 51.98 88.562 53.2 86.862 53.2C85.142 53.2 83.662 51.98 83.662 49.48ZM110.456 55H112.716V48.5C112.716 45.42 110.756 43.8 108.176 43.8C106.576 43.8 105.016 44.64 104.336 45.98C103.576 44.54 102.116 43.8 100.376 43.8C99.0559 43.8 97.8559 44.34 97.1159 45.24V43.98H94.8359V55H97.1159V48.84C97.1159 46.82 98.2159 45.78 99.8959 45.78C101.556 45.78 102.656 46.82 102.656 48.84V55H104.916V48.84C104.916 46.82 106.016 45.78 107.696 45.78C109.356 45.78 110.456 46.82 110.456 48.84V55ZM120.257 45.72C121.957 45.72 123.297 46.8 123.337 48.5H117.237C117.477 46.76 118.717 45.72 120.257 45.72ZM125.417 51.72H122.957C122.537 52.58 121.757 53.26 120.357 53.26C118.677 53.26 117.377 52.16 117.217 50.34H125.637C125.697 49.96 125.717 49.6 125.717 49.22C125.717 45.98 123.497 43.8 120.357 43.8C117.097 43.8 114.857 46.02 114.857 49.48C114.857 52.94 117.197 55.18 120.357 55.18C123.057 55.18 124.797 53.64 125.417 51.72ZM130.241 49.2C130.241 46.86 131.281 46.16 132.961 46.16H133.541V43.8C131.981 43.8 130.881 44.48 130.241 45.58V43.98H127.961V55H130.241V49.2ZM140.832 55H143.112V45.48L147.372 55H148.952L153.192 45.48V55H155.472V41.1H153.032L148.172 52L143.292 41.1H140.832V55ZM157.709 49.44C157.709 52.84 160.009 55.18 162.869 55.18C164.709 55.18 166.029 54.3 166.729 53.36V55H169.029V43.98H166.729V45.58C166.049 44.68 164.769 43.8 162.909 43.8C160.009 43.8 157.709 46.04 157.709 49.44ZM166.729 49.48C166.729 51.86 165.109 53.2 163.389 53.2C161.689 53.2 160.049 51.82 160.049 49.44C160.049 47.06 161.689 45.78 163.389 45.78C165.109 45.78 166.729 47.12 166.729 49.48ZM174.303 45.6V43.98H172.023V60.24H174.303V53.4C175.023 54.26 176.323 55.18 178.143 55.18C181.043 55.18 183.323 52.84 183.323 49.44C183.323 46.04 181.043 43.8 178.143 43.8C176.343 43.8 175.003 44.68 174.303 45.6ZM181.003 49.44C181.003 51.82 179.363 53.2 177.643 53.2C175.943 53.2 174.303 51.86 174.303 49.48C174.303 47.12 175.943 45.78 177.643 45.78C179.363 45.78 181.003 47.06 181.003 49.44Z" fill="black"/>
<path d="M35.924 74.636V83H39.944V82.112H37.016V74.636H35.924ZM47.3437 79.7C47.3437 77.624 45.8917 76.316 44.0197 76.316C42.1597 76.316 40.6957 77.624 40.6957 79.7C40.6957 81.788 42.1117 83.108 43.9717 83.108C45.8437 83.108 47.3437 81.788 47.3437 79.7ZM41.8117 79.7C41.8117 78.044 42.8557 77.264 44.0077 77.264C45.1357 77.264 46.2277 78.044 46.2277 79.7C46.2277 81.368 45.1117 82.148 43.9717 82.148C42.8317 82.148 41.8117 81.368 41.8117 79.7ZM49.8715 79.424C49.8715 77.9 50.6635 77.432 51.7075 77.432H51.9955V76.304C50.9515 76.304 50.2435 76.76 49.8715 77.492V76.424H48.7795V83H49.8715V79.424ZM56.052 77.24C57.18 77.24 58.14 77.948 58.128 79.232H53.976C54.096 77.948 54.984 77.24 56.052 77.24ZM59.124 80.972H57.948C57.708 81.68 57.084 82.184 56.1 82.184C54.984 82.184 54.048 81.452 53.964 80.12H59.22C59.244 79.892 59.256 79.7 59.256 79.46C59.256 77.66 58.008 76.316 56.1 76.316C54.18 76.316 52.848 77.624 52.848 79.7C52.848 81.788 54.228 83.108 56.1 83.108C57.732 83.108 58.788 82.172 59.124 80.972ZM70.1894 83H71.2694V79.124C71.2694 77.24 70.1054 76.304 68.6054 76.304C67.5974 76.304 66.6614 76.82 66.2774 77.768C65.8454 76.784 64.9454 76.304 63.8654 76.304C63.0014 76.304 62.2214 76.676 61.7894 77.372V76.424H60.6974V83H61.7894V79.376C61.7894 77.96 62.5454 77.252 63.6494 77.252C64.7294 77.252 65.4494 77.936 65.4494 79.28V83H66.5294V79.376C66.5294 77.96 67.2854 77.252 68.3894 77.252C69.4694 77.252 70.1894 77.936 70.1894 79.28V83ZM76.2599 83H77.3519V76.424H76.2599V83ZM76.8239 75.356C77.2199 75.356 77.5439 75.032 77.5439 74.612C77.5439 74.192 77.2199 73.868 76.8239 73.868C76.4039 73.868 76.0799 74.192 76.0799 74.612C76.0799 75.032 76.4039 75.356 76.8239 75.356ZM80.3051 77.636V76.424H79.2131V86.12H80.3051V81.788C80.7131 82.46 81.5651 83.108 82.7651 83.108C84.5291 83.108 85.8851 81.728 85.8851 79.688C85.8851 77.636 84.5291 76.316 82.7651 76.316C81.5651 76.316 80.7011 76.94 80.3051 77.636ZM84.7691 79.688C84.7691 81.236 83.7491 82.148 82.5371 82.148C81.3491 82.148 80.3051 81.248 80.3051 79.7C80.3051 78.176 81.3491 77.264 82.5371 77.264C83.7491 77.264 84.7691 78.14 84.7691 79.688ZM92.0504 81.212C92.0024 78.86 88.1864 79.712 88.1864 78.152C88.1864 77.624 88.6664 77.24 89.4704 77.24C90.3464 77.24 90.8504 77.72 90.8984 78.38H91.9904C91.9184 77.096 90.9584 76.316 89.5064 76.316C88.0424 76.316 87.0944 77.144 87.0944 78.152C87.0944 80.6 90.9824 79.748 90.9824 81.212C90.9824 81.752 90.5024 82.184 89.6384 82.184C88.7144 82.184 88.1504 81.704 88.0904 81.068H86.9624C87.0344 82.268 88.1144 83.108 89.6504 83.108C91.1024 83.108 92.0504 82.292 92.0504 81.212ZM99.424 76.424H98.332V80.036C98.332 81.452 97.576 82.148 96.448 82.148C95.344 82.148 94.612 81.464 94.612 80.132V76.424H93.532V80.276C93.532 82.16 94.72 83.096 96.232 83.096C97.108 83.096 97.912 82.712 98.332 82.028V83H99.424V76.424ZM110.76 83H111.84V79.124C111.84 77.24 110.676 76.304 109.176 76.304C108.168 76.304 107.232 76.82 106.848 77.768C106.416 76.784 105.516 76.304 104.436 76.304C103.572 76.304 102.792 76.676 102.36 77.372V76.424H101.268V83H102.36V79.376C102.36 77.96 103.116 77.252 104.22 77.252C105.3 77.252 106.02 77.936 106.02 79.28V83H107.1V79.376C107.1 77.96 107.856 77.252 108.96 77.252C110.04 77.252 110.76 77.936 110.76 79.28V83ZM116.422 79.688C116.422 81.728 117.778 83.108 119.542 83.108C120.742 83.108 121.594 82.496 121.99 81.764V83H123.094V74.12H121.99V77.6C121.534 76.844 120.586 76.316 119.554 76.316C117.778 76.316 116.422 77.636 116.422 79.688ZM121.99 79.7C121.99 81.248 120.958 82.148 119.758 82.148C118.558 82.148 117.538 81.236 117.538 79.688C117.538 78.14 118.558 77.264 119.758 77.264C120.958 77.264 121.99 78.176 121.99 79.7ZM131.18 79.7C131.18 77.624 129.728 76.316 127.856 76.316C125.996 76.316 124.532 77.624 124.532 79.7C124.532 81.788 125.948 83.108 127.808 83.108C129.68 83.108 131.18 81.788 131.18 79.7ZM125.648 79.7C125.648 78.044 126.692 77.264 127.844 77.264C128.972 77.264 130.064 78.044 130.064 79.7C130.064 81.368 128.948 82.148 127.808 82.148C126.668 82.148 125.648 81.368 125.648 79.7ZM132.615 83H133.707V74.12H132.615V83ZM141.809 79.7C141.809 77.624 140.357 76.316 138.485 76.316C136.625 76.316 135.161 77.624 135.161 79.7C135.161 81.788 136.577 83.108 138.437 83.108C140.309 83.108 141.809 81.788 141.809 79.7ZM136.277 79.7C136.277 78.044 137.321 77.264 138.473 77.264C139.601 77.264 140.693 78.044 140.693 79.7C140.693 81.368 139.577 82.148 138.437 82.148C137.297 82.148 136.277 81.368 136.277 79.7ZM144.336 79.424C144.336 77.9 145.128 77.432 146.172 77.432H146.46V76.304C145.416 76.304 144.708 76.76 144.336 77.492V76.424H143.244V83H144.336V79.424ZM155.648 81.212C155.6 78.86 151.784 79.712 151.784 78.152C151.784 77.624 152.264 77.24 153.068 77.24C153.944 77.24 154.448 77.72 154.496 78.38H155.588C155.516 77.096 154.556 76.316 153.104 76.316C151.64 76.316 150.692 77.144 150.692 78.152C150.692 80.6 154.58 79.748 154.58 81.212C154.58 81.752 154.1 82.184 153.236 82.184C152.312 82.184 151.748 81.704 151.688 81.068H150.56C150.632 82.268 151.712 83.108 153.248 83.108C154.7 83.108 155.648 82.292 155.648 81.212ZM157.19 83H158.282V76.424H157.19V83ZM157.754 75.356C158.15 75.356 158.474 75.032 158.474 74.612C158.474 74.192 158.15 73.868 157.754 73.868C157.334 73.868 157.01 74.192 157.01 74.612C157.01 75.032 157.334 75.356 157.754 75.356ZM160.383 81.2C160.383 82.52 161.043 83 162.207 83H163.191V82.076H162.387C161.715 82.076 161.475 81.848 161.475 81.2V77.324H163.191V76.424H161.475V74.768H160.383V76.424H159.531V77.324H160.383V81.2ZM167.305 79.688C167.305 81.728 168.661 83.108 170.413 83.108C171.625 83.108 172.477 82.484 172.873 81.776V83H173.977V76.424H172.873V77.624C172.489 76.94 171.649 76.316 170.425 76.316C168.661 76.316 167.305 77.636 167.305 79.688ZM172.873 79.7C172.873 81.248 171.841 82.148 170.641 82.148C169.441 82.148 168.421 81.236 168.421 79.688C168.421 78.14 169.441 77.264 170.641 77.264C171.841 77.264 172.873 78.176 172.873 79.7ZM185.314 83H186.394V79.124C186.394 77.24 185.23 76.304 183.73 76.304C182.722 76.304 181.786 76.82 181.402 77.768C180.97 76.784 180.07 76.304 178.99 76.304C178.126 76.304 177.346 76.676 176.914 77.372V76.424H175.822V83H176.914V79.376C176.914 77.96 177.67 77.252 178.774 77.252C179.854 77.252 180.574 77.936 180.574 79.28V83H181.654V79.376C181.654 77.96 182.41 77.252 183.514 77.252C184.594 77.252 185.314 77.936 185.314 79.28V83ZM190.982 77.24C192.11 77.24 193.07 77.948 193.058 79.232H188.906C189.026 77.948 189.914 77.24 190.982 77.24ZM194.054 80.972H192.878C192.638 81.68 192.014 82.184 191.03 82.184C189.914 82.184 188.978 81.452 188.894 80.12H194.15C194.174 79.892 194.186 79.7 194.186 79.46C194.186 77.66 192.938 76.316 191.03 76.316C189.11 76.316 187.778 77.624 187.778 79.7C187.778 81.788 189.158 83.108 191.03 83.108C192.662 83.108 193.718 82.172 194.054 80.972ZM195.867 81.2C195.867 82.52 196.527 83 197.691 83H198.675V82.076H197.871C197.199 82.076 196.959 81.848 196.959 81.2V77.324H198.675V76.424H196.959V74.768H195.867V76.424H195.015V77.324H195.867V81.2ZM199.05 84.716H199.782L201.126 81.488H199.926L199.05 84.716ZM205.168 79.7C205.168 81.788 206.5 83.108 208.372 83.108C210.004 83.108 211.072 82.196 211.408 80.888H210.232C209.992 81.716 209.344 82.184 208.372 82.184C207.172 82.184 206.284 81.332 206.284 79.7C206.284 78.092 207.172 77.24 208.372 77.24C209.344 77.24 210.004 77.744 210.232 78.536H211.408C211.072 77.156 210.004 76.316 208.372 76.316C206.5 76.316 205.168 77.636 205.168 79.7ZM219.105 79.7C219.105 77.624 217.653 76.316 215.781 76.316C213.921 76.316 212.457 77.624 212.457 79.7C212.457 81.788 213.873 83.108 215.733 83.108C217.605 83.108 219.105 81.788 219.105 79.7ZM213.573 79.7C213.573 78.044 214.617 77.264 215.769 77.264C216.897 77.264 217.989 78.044 217.989 79.7C217.989 81.368 216.873 82.148 215.733 82.148C214.593 82.148 213.573 81.368 213.573 79.7ZM225.353 83H226.433V79.124C226.433 77.24 225.269 76.304 223.745 76.304C222.857 76.304 222.065 76.676 221.633 77.36V76.424H220.541V83H221.633V79.364C221.633 77.948 222.401 77.252 223.517 77.252C224.621 77.252 225.353 77.936 225.353 79.28V83ZM232.945 81.212C232.897 78.86 229.081 79.712 229.081 78.152C229.081 77.624 229.561 77.24 230.365 77.24C231.241 77.24 231.745 77.72 231.793 78.38H232.885C232.813 77.096 231.853 76.316 230.401 76.316C228.937 76.316 227.989 77.144 227.989 78.152C227.989 80.6 231.877 79.748 231.877 81.212C231.877 81.752 231.397 82.184 230.533 82.184C229.609 82.184 229.045 81.704 228.985 81.068H227.857C227.929 82.268 229.009 83.108 230.545 83.108C231.997 83.108 232.945 82.292 232.945 81.212ZM237.283 77.24C238.411 77.24 239.371 77.948 239.359 79.232H235.207C235.326 77.948 236.215 77.24 237.283 77.24ZM240.355 80.972H239.179C238.939 81.68 238.315 82.184 237.331 82.184C236.215 82.184 235.279 81.452 235.195 80.12H240.451C240.475 79.892 240.487 79.7 240.487 79.46C240.487 77.66 239.239 76.316 237.331 76.316C235.411 76.316 234.079 77.624 234.079 79.7C234.079 81.788 235.459 83.108 237.331 83.108C238.963 83.108 240.019 82.172 240.355 80.972ZM241.52 79.7C241.52 81.788 242.852 83.108 244.724 83.108C246.356 83.108 247.424 82.196 247.76 80.888H246.584C246.344 81.716 245.696 82.184 244.724 82.184C243.524 82.184 242.636 81.332 242.636 79.7C242.636 78.092 243.524 77.24 244.724 77.24C245.696 77.24 246.356 77.744 246.584 78.536H247.76C247.424 77.156 246.356 76.316 244.724 76.316C242.852 76.316 241.52 77.636 241.52 79.7ZM249.457 81.2C249.457 82.52 250.117 83 251.281 83H252.265V82.076H251.461C250.789 82.076 250.549 81.848 250.549 81.2V77.324H252.265V76.424H250.549V74.768H249.457V76.424H248.605V77.324H249.457V81.2ZM256.384 77.24C257.512 77.24 258.472 77.948 258.46 79.232H254.308C254.428 77.948 255.316 77.24 256.384 77.24ZM259.456 80.972H258.28C258.04 81.68 257.416 82.184 256.432 82.184C255.316 82.184 254.38 81.452 254.296 80.12H259.552C259.576 79.892 259.588 79.7 259.588 79.46C259.588 77.66 258.34 76.316 256.432 76.316C254.512 76.316 253.18 77.624 253.18 79.7C253.18 81.788 254.56 83.108 256.432 83.108C258.064 83.108 259.12 82.172 259.456 80.972ZM261.269 81.2C261.269 82.52 261.929 83 263.093 83H264.077V82.076H263.273C262.601 82.076 262.361 81.848 262.361 81.2V77.324H264.077V76.424H262.361V74.768H261.269V76.424H260.417V77.324H261.269V81.2ZM271.233 76.424H270.141V80.036C270.141 81.452 269.385 82.148 268.257 82.148C267.153 82.148 266.421 81.464 266.421 80.132V76.424H265.341V80.276C265.341 82.16 266.529 83.096 268.041 83.096C268.917 83.096 269.721 82.712 270.141 82.028V83H271.233V76.424ZM274.168 79.424C274.168 77.9 274.96 77.432 276.004 77.432H276.292V76.304C275.248 76.304 274.54 76.76 274.168 77.492V76.424H273.076V83H274.168V79.424Z" fill="#969BA0"/>
<defs>
<filter id="filter0_d_17_20" x="0" y="0" width="1105" height="526" filterUnits="userSpaceOnUse" color-interpolation-filters="sRGB">
<feFlood flood-opacity="0" result="BackgroundImageFix"/>
<feColorMatrix in="SourceAlpha" type="matrix" values="0 0 0 0 0 0 0 0 0 0 0 0 0 0 0 0 0 0 127 0" result="hardAlpha"/>
<feOffset dy="1"/>
<feGaussianBlur stdDeviation="2"/>
<feColorMatrix type="matrix" values="0 0 0 0 0.243137 0 0 0 0 0.286275 0 0 0 0 0.329412 0 0 0 0.04 0"/>
<feBlend mode="normal" in2="BackgroundImageFix" result="effect1_dropShadow_17_20"/>
<feBlend mode="normal" in="SourceGraphic" in2="effect1_dropShadow_17_20" result="shape"/>
</filter>
</defs>
</svg>
